<svg xmlns="http://www.w3.org/2000/svg" width="900" height="360" viewBox="0 0 900 360" fill="none"><g opacity="0.55" stroke="#D2AB67" stroke-width="1"><path d="M-50 260C90 210 130 300 270 250C410 200 450 290 590 240C730 190 770 280 950 220"/><path d="M-50 300C90 250 130 340 270 290C410 240 450 330 590 280C730 230 770 320 950 260" opacity=".55"/><path d="M-50 220C90 170 130 260 270 210C410 160 450 250 590 200C730 150 770 240 950 180" opacity=".35"/><path d="M50 80C170 40 210 118 330 78C450 38 490 116 610 76C730 36 770 114 890 74" opacity=".25"/></g></svg>